<?xml version="1.0" encoding="UTF-8" standalone="no"?>
<!DOCTYPE svg PUBLIC "-//W3C//DTD SVG 1.1//EN"
 "http://www.w3.org/Graphics/SVG/1.1/DTD/svg11.dtd">
<!-- Generated by graphviz version 2.38.0 (20140413.2041)
 -->
<!-- Title: g Pages: 1 -->
<svg width="412pt" height="247pt"
 viewBox="0.00 0.00 411.50 247.00" xmlns="http://www.w3.org/2000/svg" xmlns:xlink="http://www.w3.org/1999/xlink">
<g id="graph0" class="graph" transform="scale(1 1) rotate(0) translate(4 243)">
<title>g</title>
<polygon fill="white" stroke="none" points="-4,4 -4,-243 407.5,-243 407.5,4 -4,4"/>
<!-- struct1 -->
<g id="node1" class="node"><title>struct1</title>
<polygon fill="none" stroke="black" points="8,-192.5 8,-213.5 64,-213.5 64,-192.5 8,-192.5"/>
<text text-anchor="start" x="11" y="-199.3" font-family="Times New Roman,serif" font-size="14.00">Matriz_2</text>
<polygon fill="none" stroke="black" points="64,-192.5 64,-213.5 77,-213.5 77,-192.5 64,-192.5"/>
<text text-anchor="start" x="67" y="-199.3" font-family="Times New Roman,serif" font-size="14.00">1</text>
<polygon fill="none" stroke="black" points="77,-192.5 77,-213.5 90,-213.5 90,-192.5 77,-192.5"/>
<text text-anchor="start" x="80" y="-199.3" font-family="Times New Roman,serif" font-size="14.00">2</text>
<polygon fill="none" stroke="black" points="90,-192.5 90,-213.5 103,-213.5 103,-192.5 90,-192.5"/>
<text text-anchor="start" x="93" y="-199.3" font-family="Times New Roman,serif" font-size="14.00">3</text>
<polygon fill="none" stroke="black" points="103,-192.5 103,-213.5 116,-213.5 116,-192.5 103,-192.5"/>
<text text-anchor="start" x="106" y="-199.3" font-family="Times New Roman,serif" font-size="14.00">4</text>
<polygon fill="none" stroke="black" points="116,-192.5 116,-213.5 129,-213.5 129,-192.5 116,-192.5"/>
<text text-anchor="start" x="119" y="-199.3" font-family="Times New Roman,serif" font-size="14.00">5</text>
<polygon fill="none" stroke="black" points="129,-192.5 129,-213.5 142,-213.5 142,-192.5 129,-192.5"/>
<text text-anchor="start" x="132" y="-199.3" font-family="Times New Roman,serif" font-size="14.00">6</text>
<polygon fill="none" stroke="black" points="142,-192.5 142,-213.5 155,-213.5 155,-192.5 142,-192.5"/>
<text text-anchor="start" x="145" y="-199.3" font-family="Times New Roman,serif" font-size="14.00">7</text>
<polygon fill="none" stroke="black" points="155,-192.5 155,-213.5 168,-213.5 168,-192.5 155,-192.5"/>
<text text-anchor="start" x="158" y="-199.3" font-family="Times New Roman,serif" font-size="14.00">8</text>
<polygon fill="none" stroke="black" points="8,-171.5 8,-192.5 64,-192.5 64,-171.5 8,-171.5"/>
<text text-anchor="start" x="32.5" y="-178.3" font-family="Times New Roman,serif" font-size="14.00">1</text>
<polygon fill="none" stroke="black" points="64,-171.5 64,-192.5 77,-192.5 77,-171.5 64,-171.5"/>
<text text-anchor="start" x="68.5" y="-178.3" font-family="Times New Roman,serif" font-size="14.00"> </text>
<polygon fill="none" stroke="black" points="77,-171.5 77,-192.5 90,-192.5 90,-171.5 77,-171.5"/>
<text text-anchor="start" x="81.5" y="-178.3" font-family="Times New Roman,serif" font-size="14.00"> </text>
<polygon fill="none" stroke="black" points="90,-171.5 90,-192.5 103,-192.5 103,-171.5 90,-171.5"/>
<text text-anchor="start" x="94.5" y="-178.3" font-family="Times New Roman,serif" font-size="14.00"> </text>
<polygon fill="none" stroke="black" points="103,-171.5 103,-192.5 116,-192.5 116,-171.5 103,-171.5"/>
<text text-anchor="start" x="107.5" y="-178.3" font-family="Times New Roman,serif" font-size="14.00"> </text>
<polygon fill="none" stroke="black" points="116,-171.5 116,-192.5 129,-192.5 129,-171.5 116,-171.5"/>
<text text-anchor="start" x="120.5" y="-178.3" font-family="Times New Roman,serif" font-size="14.00"> </text>
<polygon fill="none" stroke="black" points="129,-171.5 129,-192.5 142,-192.5 142,-171.5 129,-171.5"/>
<text text-anchor="start" x="133.5" y="-178.3" font-family="Times New Roman,serif" font-size="14.00"> </text>
<polygon fill="none" stroke="black" points="142,-171.5 142,-192.5 155,-192.5 155,-171.5 142,-171.5"/>
<text text-anchor="start" x="146.5" y="-178.3" font-family="Times New Roman,serif" font-size="14.00"> </text>
<polygon fill="none" stroke="black" points="155,-171.5 155,-192.5 168,-192.5 168,-171.5 155,-171.5"/>
<text text-anchor="start" x="159.5" y="-178.3" font-family="Times New Roman,serif" font-size="14.00"> </text>
<polygon fill="none" stroke="black" points="8,-150.5 8,-171.5 64,-171.5 64,-150.5 8,-150.5"/>
<text text-anchor="start" x="32.5" y="-157.3" font-family="Times New Roman,serif" font-size="14.00">2</text>
<polygon fill="none" stroke="black" points="64,-150.5 64,-171.5 77,-171.5 77,-150.5 64,-150.5"/>
<text text-anchor="start" x="68.5" y="-157.3" font-family="Times New Roman,serif" font-size="14.00"> </text>
<polygon fill="none" stroke="black" points="77,-150.5 77,-171.5 90,-171.5 90,-150.5 77,-150.5"/>
<text text-anchor="start" x="80" y="-157.3" font-family="Times New Roman,serif" font-size="14.00">*</text>
<polygon fill="none" stroke="black" points="90,-150.5 90,-171.5 103,-171.5 103,-150.5 90,-150.5"/>
<text text-anchor="start" x="94.5" y="-157.3" font-family="Times New Roman,serif" font-size="14.00"> </text>
<polygon fill="none" stroke="black" points="103,-150.5 103,-171.5 116,-171.5 116,-150.5 103,-150.5"/>
<text text-anchor="start" x="106" y="-157.3" font-family="Times New Roman,serif" font-size="14.00">*</text>
<polygon fill="none" stroke="black" points="116,-150.5 116,-171.5 129,-171.5 129,-150.5 116,-150.5"/>
<text text-anchor="start" x="120.5" y="-157.3" font-family="Times New Roman,serif" font-size="14.00"> </text>
<polygon fill="none" stroke="black" points="129,-150.5 129,-171.5 142,-171.5 142,-150.5 129,-150.5"/>
<text text-anchor="start" x="132" y="-157.3" font-family="Times New Roman,serif" font-size="14.00">*</text>
<polygon fill="none" stroke="black" points="142,-150.5 142,-171.5 155,-171.5 155,-150.5 142,-150.5"/>
<text text-anchor="start" x="146.5" y="-157.3" font-family="Times New Roman,serif" font-size="14.00"> </text>
<polygon fill="none" stroke="black" points="155,-150.5 155,-171.5 168,-171.5 168,-150.5 155,-150.5"/>
<text text-anchor="start" x="158" y="-157.3" font-family="Times New Roman,serif" font-size="14.00">*</text>
<polygon fill="none" stroke="black" points="8,-129.5 8,-150.5 64,-150.5 64,-129.5 8,-129.5"/>
<text text-anchor="start" x="32.5" y="-136.3" font-family="Times New Roman,serif" font-size="14.00">3</text>
<polygon fill="none" stroke="black" points="64,-129.5 64,-150.5 77,-150.5 77,-129.5 64,-129.5"/>
<text text-anchor="start" x="68.5" y="-136.3" font-family="Times New Roman,serif" font-size="14.00"> </text>
<polygon fill="none" stroke="black" points="77,-129.5 77,-150.5 90,-150.5 90,-129.5 77,-129.5"/>
<text text-anchor="start" x="81.5" y="-136.3" font-family="Times New Roman,serif" font-size="14.00"> </text>
<polygon fill="none" stroke="black" points="90,-129.5 90,-150.5 103,-150.5 103,-129.5 90,-129.5"/>
<text text-anchor="start" x="93" y="-136.3" font-family="Times New Roman,serif" font-size="14.00">*</text>
<polygon fill="none" stroke="black" points="103,-129.5 103,-150.5 116,-150.5 116,-129.5 103,-129.5"/>
<text text-anchor="start" x="107.5" y="-136.3" font-family="Times New Roman,serif" font-size="14.00"> </text>
<polygon fill="none" stroke="black" points="116,-129.5 116,-150.5 129,-150.5 129,-129.5 116,-129.5"/>
<text text-anchor="start" x="120.5" y="-136.3" font-family="Times New Roman,serif" font-size="14.00"> </text>
<polygon fill="none" stroke="black" points="129,-129.5 129,-150.5 142,-150.5 142,-129.5 129,-129.5"/>
<text text-anchor="start" x="133.5" y="-136.3" font-family="Times New Roman,serif" font-size="14.00"> </text>
<polygon fill="none" stroke="black" points="142,-129.5 142,-150.5 155,-150.5 155,-129.5 142,-129.5"/>
<text text-anchor="start" x="145" y="-136.3" font-family="Times New Roman,serif" font-size="14.00">*</text>
<polygon fill="none" stroke="black" points="155,-129.5 155,-150.5 168,-150.5 168,-129.5 155,-129.5"/>
<text text-anchor="start" x="159.5" y="-136.3" font-family="Times New Roman,serif" font-size="14.00"> </text>
<polygon fill="none" stroke="black" points="8,-108.5 8,-129.5 64,-129.5 64,-108.5 8,-108.5"/>
<text text-anchor="start" x="32.5" y="-115.3" font-family="Times New Roman,serif" font-size="14.00">4</text>
<polygon fill="none" stroke="black" points="64,-108.5 64,-129.5 77,-129.5 77,-108.5 64,-108.5"/>
<text text-anchor="start" x="68.5" y="-115.3" font-family="Times New Roman,serif" font-size="14.00"> </text>
<polygon fill="none" stroke="black" points="77,-108.5 77,-129.5 90,-129.5 90,-108.5 77,-108.5"/>
<text text-anchor="start" x="80" y="-115.3" font-family="Times New Roman,serif" font-size="14.00">*</text>
<polygon fill="none" stroke="black" points="90,-108.5 90,-129.5 103,-129.5 103,-108.5 90,-108.5"/>
<text text-anchor="start" x="94.5" y="-115.3" font-family="Times New Roman,serif" font-size="14.00"> </text>
<polygon fill="none" stroke="black" points="103,-108.5 103,-129.5 116,-129.5 116,-108.5 103,-108.5"/>
<text text-anchor="start" x="106" y="-115.3" font-family="Times New Roman,serif" font-size="14.00">*</text>
<polygon fill="none" stroke="black" points="116,-108.5 116,-129.5 129,-129.5 129,-108.5 116,-108.5"/>
<text text-anchor="start" x="120.5" y="-115.3" font-family="Times New Roman,serif" font-size="14.00"> </text>
<polygon fill="none" stroke="black" points="129,-108.5 129,-129.5 142,-129.5 142,-108.5 129,-108.5"/>
<text text-anchor="start" x="133.5" y="-115.3" font-family="Times New Roman,serif" font-size="14.00"> </text>
<polygon fill="none" stroke="black" points="142,-108.5 142,-129.5 155,-129.5 155,-108.5 142,-108.5"/>
<text text-anchor="start" x="145" y="-115.3" font-family="Times New Roman,serif" font-size="14.00">*</text>
<polygon fill="none" stroke="black" points="155,-108.5 155,-129.5 168,-129.5 168,-108.5 155,-108.5"/>
<text text-anchor="start" x="159.5" y="-115.3" font-family="Times New Roman,serif" font-size="14.00"> </text>
<polygon fill="none" stroke="black" points="8,-87.5 8,-108.5 64,-108.5 64,-87.5 8,-87.5"/>
<text text-anchor="start" x="32.5" y="-94.3" font-family="Times New Roman,serif" font-size="14.00">5</text>
<polygon fill="none" stroke="black" points="64,-87.5 64,-108.5 77,-108.5 77,-87.5 64,-87.5"/>
<text text-anchor="start" x="68.5" y="-94.3" font-family="Times New Roman,serif" font-size="14.00"> </text>
<polygon fill="none" stroke="black" points="77,-87.5 77,-108.5 90,-108.5 90,-87.5 77,-87.5"/>
<text text-anchor="start" x="81.5" y="-94.3" font-family="Times New Roman,serif" font-size="14.00"> </text>
<polygon fill="none" stroke="black" points="90,-87.5 90,-108.5 103,-108.5 103,-87.5 90,-87.5"/>
<text text-anchor="start" x="94.5" y="-94.3" font-family="Times New Roman,serif" font-size="14.00"> </text>
<polygon fill="none" stroke="black" points="103,-87.5 103,-108.5 116,-108.5 116,-87.5 103,-87.5"/>
<text text-anchor="start" x="107.5" y="-94.3" font-family="Times New Roman,serif" font-size="14.00"> </text>
<polygon fill="none" stroke="black" points="116,-87.5 116,-108.5 129,-108.5 129,-87.5 116,-87.5"/>
<text text-anchor="start" x="120.5" y="-94.3" font-family="Times New Roman,serif" font-size="14.00"> </text>
<polygon fill="none" stroke="black" points="129,-87.5 129,-108.5 142,-108.5 142,-87.5 129,-87.5"/>
<text text-anchor="start" x="133.5" y="-94.3" font-family="Times New Roman,serif" font-size="14.00"> </text>
<polygon fill="none" stroke="black" points="142,-87.5 142,-108.5 155,-108.5 155,-87.5 142,-87.5"/>
<text text-anchor="start" x="146.5" y="-94.3" font-family="Times New Roman,serif" font-size="14.00"> </text>
<polygon fill="none" stroke="black" points="155,-87.5 155,-108.5 168,-108.5 168,-87.5 155,-87.5"/>
<text text-anchor="start" x="159.5" y="-94.3" font-family="Times New Roman,serif" font-size="14.00"> </text>
<polygon fill="none" stroke="black" points="8,-66.5 8,-87.5 64,-87.5 64,-66.5 8,-66.5"/>
<text text-anchor="start" x="32.5" y="-73.3" font-family="Times New Roman,serif" font-size="14.00">6</text>
<polygon fill="none" stroke="black" points="64,-66.5 64,-87.5 77,-87.5 77,-66.5 64,-66.5"/>
<text text-anchor="start" x="68.5" y="-73.3" font-family="Times New Roman,serif" font-size="14.00"> </text>
<polygon fill="none" stroke="black" points="77,-66.5 77,-87.5 90,-87.5 90,-66.5 77,-66.5"/>
<text text-anchor="start" x="80" y="-73.3" font-family="Times New Roman,serif" font-size="14.00">*</text>
<polygon fill="none" stroke="black" points="90,-66.5 90,-87.5 103,-87.5 103,-66.5 90,-66.5"/>
<text text-anchor="start" x="93" y="-73.3" font-family="Times New Roman,serif" font-size="14.00">*</text>
<polygon fill="none" stroke="black" points="103,-66.5 103,-87.5 116,-87.5 116,-66.5 103,-66.5"/>
<text text-anchor="start" x="106" y="-73.3" font-family="Times New Roman,serif" font-size="14.00">*</text>
<polygon fill="none" stroke="black" points="116,-66.5 116,-87.5 129,-87.5 129,-66.5 116,-66.5"/>
<text text-anchor="start" x="120.5" y="-73.3" font-family="Times New Roman,serif" font-size="14.00"> </text>
<polygon fill="none" stroke="black" points="129,-66.5 129,-87.5 142,-87.5 142,-66.5 129,-66.5"/>
<text text-anchor="start" x="133.5" y="-73.3" font-family="Times New Roman,serif" font-size="14.00"> </text>
<polygon fill="none" stroke="black" points="142,-66.5 142,-87.5 155,-87.5 155,-66.5 142,-66.5"/>
<text text-anchor="start" x="145" y="-73.3" font-family="Times New Roman,serif" font-size="14.00">*</text>
<polygon fill="none" stroke="black" points="155,-66.5 155,-87.5 168,-87.5 168,-66.5 155,-66.5"/>
<text text-anchor="start" x="159.5" y="-73.3" font-family="Times New Roman,serif" font-size="14.00"> </text>
<polygon fill="none" stroke="black" points="8,-45.5 8,-66.5 64,-66.5 64,-45.5 8,-45.5"/>
<text text-anchor="start" x="32.5" y="-52.3" font-family="Times New Roman,serif" font-size="14.00">7</text>
<polygon fill="none" stroke="black" points="64,-45.5 64,-66.5 77,-66.5 77,-45.5 64,-45.5"/>
<text text-anchor="start" x="68.5" y="-52.3" font-family="Times New Roman,serif" font-size="14.00"> </text>
<polygon fill="none" stroke="black" points="77,-45.5 77,-66.5 90,-66.5 90,-45.5 77,-45.5"/>
<text text-anchor="start" x="81.5" y="-52.3" font-family="Times New Roman,serif" font-size="14.00"> </text>
<polygon fill="none" stroke="black" points="90,-45.5 90,-66.5 103,-66.5 103,-45.5 90,-45.5"/>
<text text-anchor="start" x="93" y="-52.3" font-family="Times New Roman,serif" font-size="14.00">*</text>
<polygon fill="none" stroke="black" points="103,-45.5 103,-66.5 116,-66.5 116,-45.5 103,-45.5"/>
<text text-anchor="start" x="107.5" y="-52.3" font-family="Times New Roman,serif" font-size="14.00"> </text>
<polygon fill="none" stroke="black" points="116,-45.5 116,-66.5 129,-66.5 129,-45.5 116,-45.5"/>
<text text-anchor="start" x="120.5" y="-52.3" font-family="Times New Roman,serif" font-size="14.00"> </text>
<polygon fill="none" stroke="black" points="129,-45.5 129,-66.5 142,-66.5 142,-45.5 129,-45.5"/>
<text text-anchor="start" x="132" y="-52.3" font-family="Times New Roman,serif" font-size="14.00">*</text>
<polygon fill="none" stroke="black" points="142,-45.5 142,-66.5 155,-66.5 155,-45.5 142,-45.5"/>
<text text-anchor="start" x="146.5" y="-52.3" font-family="Times New Roman,serif" font-size="14.00"> </text>
<polygon fill="none" stroke="black" points="155,-45.5 155,-66.5 168,-66.5 168,-45.5 155,-45.5"/>
<text text-anchor="start" x="158" y="-52.3" font-family="Times New Roman,serif" font-size="14.00">*</text>
<polygon fill="none" stroke="black" points="8,-24.5 8,-45.5 64,-45.5 64,-24.5 8,-24.5"/>
<text text-anchor="start" x="32.5" y="-31.3" font-family="Times New Roman,serif" font-size="14.00">8</text>
<polygon fill="none" stroke="black" points="64,-24.5 64,-45.5 77,-45.5 77,-24.5 64,-24.5"/>
<text text-anchor="start" x="68.5" y="-31.3" font-family="Times New Roman,serif" font-size="14.00"> </text>
<polygon fill="none" stroke="black" points="77,-24.5 77,-45.5 90,-45.5 90,-24.5 77,-24.5"/>
<text text-anchor="start" x="80" y="-31.3" font-family="Times New Roman,serif" font-size="14.00">*</text>
<polygon fill="none" stroke="black" points="90,-24.5 90,-45.5 103,-45.5 103,-24.5 90,-24.5"/>
<text text-anchor="start" x="93" y="-31.3" font-family="Times New Roman,serif" font-size="14.00">*</text>
<polygon fill="none" stroke="black" points="103,-24.5 103,-45.5 116,-45.5 116,-24.5 103,-24.5"/>
<text text-anchor="start" x="106" y="-31.3" font-family="Times New Roman,serif" font-size="14.00">*</text>
<polygon fill="none" stroke="black" points="116,-24.5 116,-45.5 129,-45.5 129,-24.5 116,-24.5"/>
<text text-anchor="start" x="120.5" y="-31.3" font-family="Times New Roman,serif" font-size="14.00"> </text>
<polygon fill="none" stroke="black" points="129,-24.5 129,-45.5 142,-45.5 142,-24.5 129,-24.5"/>
<text text-anchor="start" x="133.5" y="-31.3" font-family="Times New Roman,serif" font-size="14.00"> </text>
<polygon fill="none" stroke="black" points="142,-24.5 142,-45.5 155,-45.5 155,-24.5 142,-24.5"/>
<text text-anchor="start" x="145" y="-31.3" font-family="Times New Roman,serif" font-size="14.00">*</text>
<polygon fill="none" stroke="black" points="155,-24.5 155,-45.5 168,-45.5 168,-24.5 155,-24.5"/>
<text text-anchor="start" x="159.5" y="-31.3" font-family="Times New Roman,serif" font-size="14.00"> </text>
</g>
<!-- struct2 -->
<g id="node2" class="node"><title>struct2</title>
<polygon fill="none" stroke="black" points="203,-213.5 203,-234.5 259,-234.5 259,-213.5 203,-213.5"/>
<text text-anchor="start" x="206" y="-220.3" font-family="Times New Roman,serif" font-size="14.00">Matriz_1</text>
<polygon fill="none" stroke="black" points="259,-213.5 259,-234.5 272,-234.5 272,-213.5 259,-213.5"/>
<text text-anchor="start" x="262" y="-220.3" font-family="Times New Roman,serif" font-size="14.00">1</text>
<polygon fill="none" stroke="black" points="272,-213.5 272,-234.5 285,-234.5 285,-213.5 272,-213.5"/>
<text text-anchor="start" x="275" y="-220.3" font-family="Times New Roman,serif" font-size="14.00">2</text>
<polygon fill="none" stroke="black" points="285,-213.5 285,-234.5 298,-234.5 298,-213.5 285,-213.5"/>
<text text-anchor="start" x="288" y="-220.3" font-family="Times New Roman,serif" font-size="14.00">3</text>
<polygon fill="none" stroke="black" points="298,-213.5 298,-234.5 311,-234.5 311,-213.5 298,-213.5"/>
<text text-anchor="start" x="301" y="-220.3" font-family="Times New Roman,serif" font-size="14.00">4</text>
<polygon fill="none" stroke="black" points="311,-213.5 311,-234.5 324,-234.5 324,-213.5 311,-213.5"/>
<text text-anchor="start" x="314" y="-220.3" font-family="Times New Roman,serif" font-size="14.00">5</text>
<polygon fill="none" stroke="black" points="324,-213.5 324,-234.5 337,-234.5 337,-213.5 324,-213.5"/>
<text text-anchor="start" x="327" y="-220.3" font-family="Times New Roman,serif" font-size="14.00">6</text>
<polygon fill="none" stroke="black" points="337,-213.5 337,-234.5 350,-234.5 350,-213.5 337,-213.5"/>
<text text-anchor="start" x="340" y="-220.3" font-family="Times New Roman,serif" font-size="14.00">7</text>
<polygon fill="none" stroke="black" points="350,-213.5 350,-234.5 363,-234.5 363,-213.5 350,-213.5"/>
<text text-anchor="start" x="353" y="-220.3" font-family="Times New Roman,serif" font-size="14.00">8</text>
<polygon fill="none" stroke="black" points="363,-213.5 363,-234.5 376,-234.5 376,-213.5 363,-213.5"/>
<text text-anchor="start" x="366" y="-220.3" font-family="Times New Roman,serif" font-size="14.00">9</text>
<polygon fill="none" stroke="black" points="376,-213.5 376,-234.5 396,-234.5 396,-213.5 376,-213.5"/>
<text text-anchor="start" x="379" y="-220.3" font-family="Times New Roman,serif" font-size="14.00">10</text>
<polygon fill="none" stroke="black" points="203,-192.5 203,-213.5 259,-213.5 259,-192.5 203,-192.5"/>
<text text-anchor="start" x="227.5" y="-199.3" font-family="Times New Roman,serif" font-size="14.00">1</text>
<polygon fill="none" stroke="black" points="259,-192.5 259,-213.5 272,-213.5 272,-192.5 259,-192.5"/>
<text text-anchor="start" x="263.5" y="-199.3" font-family="Times New Roman,serif" font-size="14.00"> </text>
<polygon fill="none" stroke="black" points="272,-192.5 272,-213.5 285,-213.5 285,-192.5 272,-192.5"/>
<text text-anchor="start" x="276.5" y="-199.3" font-family="Times New Roman,serif" font-size="14.00"> </text>
<polygon fill="none" stroke="black" points="285,-192.5 285,-213.5 298,-213.5 298,-192.5 285,-192.5"/>
<text text-anchor="start" x="289.5" y="-199.3" font-family="Times New Roman,serif" font-size="14.00"> </text>
<polygon fill="none" stroke="black" points="298,-192.5 298,-213.5 311,-213.5 311,-192.5 298,-192.5"/>
<text text-anchor="start" x="302.5" y="-199.3" font-family="Times New Roman,serif" font-size="14.00"> </text>
<polygon fill="none" stroke="black" points="311,-192.5 311,-213.5 324,-213.5 324,-192.5 311,-192.5"/>
<text text-anchor="start" x="315.5" y="-199.3" font-family="Times New Roman,serif" font-size="14.00"> </text>
<polygon fill="none" stroke="black" points="324,-192.5 324,-213.5 337,-213.5 337,-192.5 324,-192.5"/>
<text text-anchor="start" x="328.5" y="-199.3" font-family="Times New Roman,serif" font-size="14.00"> </text>
<polygon fill="none" stroke="black" points="337,-192.5 337,-213.5 350,-213.5 350,-192.5 337,-192.5"/>
<text text-anchor="start" x="341.5" y="-199.3" font-family="Times New Roman,serif" font-size="14.00"> </text>
<polygon fill="none" stroke="black" points="350,-192.5 350,-213.5 363,-213.5 363,-192.5 350,-192.5"/>
<text text-anchor="start" x="354.5" y="-199.3" font-family="Times New Roman,serif" font-size="14.00"> </text>
<polygon fill="none" stroke="black" points="363,-192.5 363,-213.5 376,-213.5 376,-192.5 363,-192.5"/>
<text text-anchor="start" x="367.5" y="-199.3" font-family="Times New Roman,serif" font-size="14.00"> </text>
<polygon fill="none" stroke="black" points="376,-192.5 376,-213.5 396,-213.5 396,-192.5 376,-192.5"/>
<text text-anchor="start" x="384" y="-199.3" font-family="Times New Roman,serif" font-size="14.00"> </text>
<polygon fill="none" stroke="black" points="203,-171.5 203,-192.5 259,-192.5 259,-171.5 203,-171.5"/>
<text text-anchor="start" x="227.5" y="-178.3" font-family="Times New Roman,serif" font-size="14.00">2</text>
<polygon fill="none" stroke="black" points="259,-171.5 259,-192.5 272,-192.5 272,-171.5 259,-171.5"/>
<text text-anchor="start" x="263.5" y="-178.3" font-family="Times New Roman,serif" font-size="14.00"> </text>
<polygon fill="none" stroke="black" points="272,-171.5 272,-192.5 285,-192.5 285,-171.5 272,-171.5"/>
<text text-anchor="start" x="275" y="-178.3" font-family="Times New Roman,serif" font-size="14.00">*</text>
<polygon fill="none" stroke="black" points="285,-171.5 285,-192.5 298,-192.5 298,-171.5 285,-171.5"/>
<text text-anchor="start" x="288" y="-178.3" font-family="Times New Roman,serif" font-size="14.00">*</text>
<polygon fill="none" stroke="black" points="298,-171.5 298,-192.5 311,-192.5 311,-171.5 298,-171.5"/>
<text text-anchor="start" x="301" y="-178.3" font-family="Times New Roman,serif" font-size="14.00">*</text>
<polygon fill="none" stroke="black" points="311,-171.5 311,-192.5 324,-192.5 324,-171.5 311,-171.5"/>
<text text-anchor="start" x="315.5" y="-178.3" font-family="Times New Roman,serif" font-size="14.00"> </text>
<polygon fill="none" stroke="black" points="324,-171.5 324,-192.5 337,-192.5 337,-171.5 324,-171.5"/>
<text text-anchor="start" x="327" y="-178.3" font-family="Times New Roman,serif" font-size="14.00">*</text>
<polygon fill="none" stroke="black" points="337,-171.5 337,-192.5 350,-192.5 350,-171.5 337,-171.5"/>
<text text-anchor="start" x="340" y="-178.3" font-family="Times New Roman,serif" font-size="14.00">*</text>
<polygon fill="none" stroke="black" points="350,-171.5 350,-192.5 363,-192.5 363,-171.5 350,-171.5"/>
<text text-anchor="start" x="353" y="-178.3" font-family="Times New Roman,serif" font-size="14.00">*</text>
<polygon fill="none" stroke="black" points="363,-171.5 363,-192.5 376,-192.5 376,-171.5 363,-171.5"/>
<text text-anchor="start" x="367.5" y="-178.3" font-family="Times New Roman,serif" font-size="14.00"> </text>
<polygon fill="none" stroke="black" points="376,-171.5 376,-192.5 396,-192.5 396,-171.5 376,-171.5"/>
<text text-anchor="start" x="384" y="-178.3" font-family="Times New Roman,serif" font-size="14.00"> </text>
<polygon fill="none" stroke="black" points="203,-150.5 203,-171.5 259,-171.5 259,-150.5 203,-150.5"/>
<text text-anchor="start" x="227.5" y="-157.3" font-family="Times New Roman,serif" font-size="14.00">3</text>
<polygon fill="none" stroke="black" points="259,-150.5 259,-171.5 272,-171.5 272,-150.5 259,-150.5"/>
<text text-anchor="start" x="263.5" y="-157.3" font-family="Times New Roman,serif" font-size="14.00"> </text>
<polygon fill="none" stroke="black" points="272,-150.5 272,-171.5 285,-171.5 285,-150.5 272,-150.5"/>
<text text-anchor="start" x="276.5" y="-157.3" font-family="Times New Roman,serif" font-size="14.00"> </text>
<polygon fill="none" stroke="black" points="285,-150.5 285,-171.5 298,-171.5 298,-150.5 285,-150.5"/>
<text text-anchor="start" x="288" y="-157.3" font-family="Times New Roman,serif" font-size="14.00">*</text>
<polygon fill="none" stroke="black" points="298,-150.5 298,-171.5 311,-171.5 311,-150.5 298,-150.5"/>
<text text-anchor="start" x="302.5" y="-157.3" font-family="Times New Roman,serif" font-size="14.00"> </text>
<polygon fill="none" stroke="black" points="311,-150.5 311,-171.5 324,-171.5 324,-150.5 311,-150.5"/>
<text text-anchor="start" x="315.5" y="-157.3" font-family="Times New Roman,serif" font-size="14.00"> </text>
<polygon fill="none" stroke="black" points="324,-150.5 324,-171.5 337,-171.5 337,-150.5 324,-150.5"/>
<text text-anchor="start" x="327" y="-157.3" font-family="Times New Roman,serif" font-size="14.00">*</text>
<polygon fill="none" stroke="black" points="337,-150.5 337,-171.5 350,-171.5 350,-150.5 337,-150.5"/>
<text text-anchor="start" x="340" y="-157.3" font-family="Times New Roman,serif" font-size="14.00">*</text>
<polygon fill="none" stroke="black" points="350,-150.5 350,-171.5 363,-171.5 363,-150.5 350,-150.5"/>
<text text-anchor="start" x="353" y="-157.3" font-family="Times New Roman,serif" font-size="14.00">*</text>
<polygon fill="none" stroke="black" points="363,-150.5 363,-171.5 376,-171.5 376,-150.5 363,-150.5"/>
<text text-anchor="start" x="367.5" y="-157.3" font-family="Times New Roman,serif" font-size="14.00"> </text>
<polygon fill="none" stroke="black" points="376,-150.5 376,-171.5 396,-171.5 396,-150.5 376,-150.5"/>
<text text-anchor="start" x="384" y="-157.3" font-family="Times New Roman,serif" font-size="14.00"> </text>
<polygon fill="none" stroke="black" points="203,-129.5 203,-150.5 259,-150.5 259,-129.5 203,-129.5"/>
<text text-anchor="start" x="227.5" y="-136.3" font-family="Times New Roman,serif" font-size="14.00">4</text>
<polygon fill="none" stroke="black" points="259,-129.5 259,-150.5 272,-150.5 272,-129.5 259,-129.5"/>
<text text-anchor="start" x="263.5" y="-136.3" font-family="Times New Roman,serif" font-size="14.00"> </text>
<polygon fill="none" stroke="black" points="272,-129.5 272,-150.5 285,-150.5 285,-129.5 272,-129.5"/>
<text text-anchor="start" x="276.5" y="-136.3" font-family="Times New Roman,serif" font-size="14.00"> </text>
<polygon fill="none" stroke="black" points="285,-129.5 285,-150.5 298,-150.5 298,-129.5 285,-129.5"/>
<text text-anchor="start" x="288" y="-136.3" font-family="Times New Roman,serif" font-size="14.00">*</text>
<polygon fill="none" stroke="black" points="298,-129.5 298,-150.5 311,-150.5 311,-129.5 298,-129.5"/>
<text text-anchor="start" x="302.5" y="-136.3" font-family="Times New Roman,serif" font-size="14.00"> </text>
<polygon fill="none" stroke="black" points="311,-129.5 311,-150.5 324,-150.5 324,-129.5 311,-129.5"/>
<text text-anchor="start" x="315.5" y="-136.3" font-family="Times New Roman,serif" font-size="14.00"> </text>
<polygon fill="none" stroke="black" points="324,-129.5 324,-150.5 337,-150.5 337,-129.5 324,-129.5"/>
<text text-anchor="start" x="327" y="-136.3" font-family="Times New Roman,serif" font-size="14.00">*</text>
<polygon fill="none" stroke="black" points="337,-129.5 337,-150.5 350,-150.5 350,-129.5 337,-129.5"/>
<text text-anchor="start" x="341.5" y="-136.3" font-family="Times New Roman,serif" font-size="14.00"> </text>
<polygon fill="none" stroke="black" points="350,-129.5 350,-150.5 363,-150.5 363,-129.5 350,-129.5"/>
<text text-anchor="start" x="354.5" y="-136.3" font-family="Times New Roman,serif" font-size="14.00"> </text>
<polygon fill="none" stroke="black" points="363,-129.5 363,-150.5 376,-150.5 376,-129.5 363,-129.5"/>
<text text-anchor="start" x="367.5" y="-136.3" font-family="Times New Roman,serif" font-size="14.00"> </text>
<polygon fill="none" stroke="black" points="376,-129.5 376,-150.5 396,-150.5 396,-129.5 376,-129.5"/>
<text text-anchor="start" x="384" y="-136.3" font-family="Times New Roman,serif" font-size="14.00"> </text>
<polygon fill="none" stroke="black" points="203,-108.5 203,-129.5 259,-129.5 259,-108.5 203,-108.5"/>
<text text-anchor="start" x="227.5" y="-115.3" font-family="Times New Roman,serif" font-size="14.00">5</text>
<polygon fill="none" stroke="black" points="259,-108.5 259,-129.5 272,-129.5 272,-108.5 259,-108.5"/>
<text text-anchor="start" x="263.5" y="-115.3" font-family="Times New Roman,serif" font-size="14.00"> </text>
<polygon fill="none" stroke="black" points="272,-108.5 272,-129.5 285,-129.5 285,-108.5 272,-108.5"/>
<text text-anchor="start" x="275" y="-115.3" font-family="Times New Roman,serif" font-size="14.00">*</text>
<polygon fill="none" stroke="black" points="285,-108.5 285,-129.5 298,-129.5 298,-108.5 285,-108.5"/>
<text text-anchor="start" x="288" y="-115.3" font-family="Times New Roman,serif" font-size="14.00">*</text>
<polygon fill="none" stroke="black" points="298,-108.5 298,-129.5 311,-129.5 311,-108.5 298,-108.5"/>
<text text-anchor="start" x="301" y="-115.3" font-family="Times New Roman,serif" font-size="14.00">*</text>
<polygon fill="none" stroke="black" points="311,-108.5 311,-129.5 324,-129.5 324,-108.5 311,-108.5"/>
<text text-anchor="start" x="315.5" y="-115.3" font-family="Times New Roman,serif" font-size="14.00"> </text>
<polygon fill="none" stroke="black" points="324,-108.5 324,-129.5 337,-129.5 337,-108.5 324,-108.5"/>
<text text-anchor="start" x="327" y="-115.3" font-family="Times New Roman,serif" font-size="14.00">*</text>
<polygon fill="none" stroke="black" points="337,-108.5 337,-129.5 350,-129.5 350,-108.5 337,-108.5"/>
<text text-anchor="start" x="341.5" y="-115.3" font-family="Times New Roman,serif" font-size="14.00"> </text>
<polygon fill="none" stroke="black" points="350,-108.5 350,-129.5 363,-129.5 363,-108.5 350,-108.5"/>
<text text-anchor="start" x="354.5" y="-115.3" font-family="Times New Roman,serif" font-size="14.00"> </text>
<polygon fill="none" stroke="black" points="363,-108.5 363,-129.5 376,-129.5 376,-108.5 363,-108.5"/>
<text text-anchor="start" x="367.5" y="-115.3" font-family="Times New Roman,serif" font-size="14.00"> </text>
<polygon fill="none" stroke="black" points="376,-108.5 376,-129.5 396,-129.5 396,-108.5 376,-108.5"/>
<text text-anchor="start" x="384" y="-115.3" font-family="Times New Roman,serif" font-size="14.00"> </text>
<polygon fill="none" stroke="black" points="203,-87.5 203,-108.5 259,-108.5 259,-87.5 203,-87.5"/>
<text text-anchor="start" x="227.5" y="-94.3" font-family="Times New Roman,serif" font-size="14.00">6</text>
<polygon fill="none" stroke="black" points="259,-87.5 259,-108.5 272,-108.5 272,-87.5 259,-87.5"/>
<text text-anchor="start" x="263.5" y="-94.3" font-family="Times New Roman,serif" font-size="14.00"> </text>
<polygon fill="none" stroke="black" points="272,-87.5 272,-108.5 285,-108.5 285,-87.5 272,-87.5"/>
<text text-anchor="start" x="276.5" y="-94.3" font-family="Times New Roman,serif" font-size="14.00"> </text>
<polygon fill="none" stroke="black" points="285,-87.5 285,-108.5 298,-108.5 298,-87.5 285,-87.5"/>
<text text-anchor="start" x="289.5" y="-94.3" font-family="Times New Roman,serif" font-size="14.00"> </text>
<polygon fill="none" stroke="black" points="298,-87.5 298,-108.5 311,-108.5 311,-87.5 298,-87.5"/>
<text text-anchor="start" x="302.5" y="-94.3" font-family="Times New Roman,serif" font-size="14.00"> </text>
<polygon fill="none" stroke="black" points="311,-87.5 311,-108.5 324,-108.5 324,-87.5 311,-87.5"/>
<text text-anchor="start" x="315.5" y="-94.3" font-family="Times New Roman,serif" font-size="14.00"> </text>
<polygon fill="none" stroke="black" points="324,-87.5 324,-108.5 337,-108.5 337,-87.5 324,-87.5"/>
<text text-anchor="start" x="328.5" y="-94.3" font-family="Times New Roman,serif" font-size="14.00"> </text>
<polygon fill="none" stroke="black" points="337,-87.5 337,-108.5 350,-108.5 350,-87.5 337,-87.5"/>
<text text-anchor="start" x="341.5" y="-94.3" font-family="Times New Roman,serif" font-size="14.00"> </text>
<polygon fill="none" stroke="black" points="350,-87.5 350,-108.5 363,-108.5 363,-87.5 350,-87.5"/>
<text text-anchor="start" x="354.5" y="-94.3" font-family="Times New Roman,serif" font-size="14.00"> </text>
<polygon fill="none" stroke="black" points="363,-87.5 363,-108.5 376,-108.5 376,-87.5 363,-87.5"/>
<text text-anchor="start" x="367.5" y="-94.3" font-family="Times New Roman,serif" font-size="14.00"> </text>
<polygon fill="none" stroke="black" points="376,-87.5 376,-108.5 396,-108.5 396,-87.5 376,-87.5"/>
<text text-anchor="start" x="384" y="-94.3" font-family="Times New Roman,serif" font-size="14.00"> </text>
<polygon fill="none" stroke="black" points="203,-66.5 203,-87.5 259,-87.5 259,-66.5 203,-66.5"/>
<text text-anchor="start" x="227.5" y="-73.3" font-family="Times New Roman,serif" font-size="14.00">7</text>
<polygon fill="none" stroke="black" points="259,-66.5 259,-87.5 272,-87.5 272,-66.5 259,-66.5"/>
<text text-anchor="start" x="263.5" y="-73.3" font-family="Times New Roman,serif" font-size="14.00"> </text>
<polygon fill="none" stroke="black" points="272,-66.5 272,-87.5 285,-87.5 285,-66.5 272,-66.5"/>
<text text-anchor="start" x="275" y="-73.3" font-family="Times New Roman,serif" font-size="14.00">*</text>
<polygon fill="none" stroke="black" points="285,-66.5 285,-87.5 298,-87.5 298,-66.5 285,-66.5"/>
<text text-anchor="start" x="288" y="-73.3" font-family="Times New Roman,serif" font-size="14.00">*</text>
<polygon fill="none" stroke="black" points="298,-66.5 298,-87.5 311,-87.5 311,-66.5 298,-66.5"/>
<text text-anchor="start" x="301" y="-73.3" font-family="Times New Roman,serif" font-size="14.00">*</text>
<polygon fill="none" stroke="black" points="311,-66.5 311,-87.5 324,-87.5 324,-66.5 311,-66.5"/>
<text text-anchor="start" x="315.5" y="-73.3" font-family="Times New Roman,serif" font-size="14.00"> </text>
<polygon fill="none" stroke="black" points="324,-66.5 324,-87.5 337,-87.5 337,-66.5 324,-66.5"/>
<text text-anchor="start" x="327" y="-73.3" font-family="Times New Roman,serif" font-size="14.00">*</text>
<polygon fill="none" stroke="black" points="337,-66.5 337,-87.5 350,-87.5 350,-66.5 337,-66.5"/>
<text text-anchor="start" x="340" y="-73.3" font-family="Times New Roman,serif" font-size="14.00">*</text>
<polygon fill="none" stroke="black" points="350,-66.5 350,-87.5 363,-87.5 363,-66.5 350,-66.5"/>
<text text-anchor="start" x="353" y="-73.3" font-family="Times New Roman,serif" font-size="14.00">*</text>
<polygon fill="none" stroke="black" points="363,-66.5 363,-87.5 376,-87.5 376,-66.5 363,-66.5"/>
<text text-anchor="start" x="367.5" y="-73.3" font-family="Times New Roman,serif" font-size="14.00"> </text>
<polygon fill="none" stroke="black" points="376,-66.5 376,-87.5 396,-87.5 396,-66.5 376,-66.5"/>
<text text-anchor="start" x="384" y="-73.3" font-family="Times New Roman,serif" font-size="14.00"> </text>
<polygon fill="none" stroke="black" points="203,-45.5 203,-66.5 259,-66.5 259,-45.5 203,-45.5"/>
<text text-anchor="start" x="227.5" y="-52.3" font-family="Times New Roman,serif" font-size="14.00">8</text>
<polygon fill="none" stroke="black" points="259,-45.5 259,-66.5 272,-66.5 272,-45.5 259,-45.5"/>
<text text-anchor="start" x="263.5" y="-52.3" font-family="Times New Roman,serif" font-size="14.00"> </text>
<polygon fill="none" stroke="black" points="272,-45.5 272,-66.5 285,-66.5 285,-45.5 272,-45.5"/>
<text text-anchor="start" x="275" y="-52.3" font-family="Times New Roman,serif" font-size="14.00">*</text>
<polygon fill="none" stroke="black" points="285,-45.5 285,-66.5 298,-66.5 298,-45.5 285,-45.5"/>
<text text-anchor="start" x="289.5" y="-52.3" font-family="Times New Roman,serif" font-size="14.00"> </text>
<polygon fill="none" stroke="black" points="298,-45.5 298,-66.5 311,-66.5 311,-45.5 298,-45.5"/>
<text text-anchor="start" x="302.5" y="-52.3" font-family="Times New Roman,serif" font-size="14.00"> </text>
<polygon fill="none" stroke="black" points="311,-45.5 311,-66.5 324,-66.5 324,-45.5 311,-45.5"/>
<text text-anchor="start" x="315.5" y="-52.3" font-family="Times New Roman,serif" font-size="14.00"> </text>
<polygon fill="none" stroke="black" points="324,-45.5 324,-66.5 337,-66.5 337,-45.5 324,-45.5"/>
<text text-anchor="start" x="328.5" y="-52.3" font-family="Times New Roman,serif" font-size="14.00"> </text>
<polygon fill="none" stroke="black" points="337,-45.5 337,-66.5 350,-66.5 350,-45.5 337,-45.5"/>
<text text-anchor="start" x="341.5" y="-52.3" font-family="Times New Roman,serif" font-size="14.00"> </text>
<polygon fill="none" stroke="black" points="350,-45.5 350,-66.5 363,-66.5 363,-45.5 350,-45.5"/>
<text text-anchor="start" x="353" y="-52.3" font-family="Times New Roman,serif" font-size="14.00">*</text>
<polygon fill="none" stroke="black" points="363,-45.5 363,-66.5 376,-66.5 376,-45.5 363,-45.5"/>
<text text-anchor="start" x="367.5" y="-52.3" font-family="Times New Roman,serif" font-size="14.00"> </text>
<polygon fill="none" stroke="black" points="376,-45.5 376,-66.5 396,-66.5 396,-45.5 376,-45.5"/>
<text text-anchor="start" x="384" y="-52.3" font-family="Times New Roman,serif" font-size="14.00"> </text>
<polygon fill="none" stroke="black" points="203,-24.5 203,-45.5 259,-45.5 259,-24.5 203,-24.5"/>
<text text-anchor="start" x="227.5" y="-31.3" font-family="Times New Roman,serif" font-size="14.00">9</text>
<polygon fill="none" stroke="black" points="259,-24.5 259,-45.5 272,-45.5 272,-24.5 259,-24.5"/>
<text text-anchor="start" x="263.5" y="-31.3" font-family="Times New Roman,serif" font-size="14.00"> </text>
<polygon fill="none" stroke="black" points="272,-24.5 272,-45.5 285,-45.5 285,-24.5 272,-24.5"/>
<text text-anchor="start" x="275" y="-31.3" font-family="Times New Roman,serif" font-size="14.00">*</text>
<polygon fill="none" stroke="black" points="285,-24.5 285,-45.5 298,-45.5 298,-24.5 285,-24.5"/>
<text text-anchor="start" x="288" y="-31.3" font-family="Times New Roman,serif" font-size="14.00">*</text>
<polygon fill="none" stroke="black" points="298,-24.5 298,-45.5 311,-45.5 311,-24.5 298,-24.5"/>
<text text-anchor="start" x="301" y="-31.3" font-family="Times New Roman,serif" font-size="14.00">*</text>
<polygon fill="none" stroke="black" points="311,-24.5 311,-45.5 324,-45.5 324,-24.5 311,-24.5"/>
<text text-anchor="start" x="315.5" y="-31.3" font-family="Times New Roman,serif" font-size="14.00"> </text>
<polygon fill="none" stroke="black" points="324,-24.5 324,-45.5 337,-45.5 337,-24.5 324,-24.5"/>
<text text-anchor="start" x="327" y="-31.3" font-family="Times New Roman,serif" font-size="14.00">*</text>
<polygon fill="none" stroke="black" points="337,-24.5 337,-45.5 350,-45.5 350,-24.5 337,-24.5"/>
<text text-anchor="start" x="340" y="-31.3" font-family="Times New Roman,serif" font-size="14.00">*</text>
<polygon fill="none" stroke="black" points="350,-24.5 350,-45.5 363,-45.5 363,-24.5 350,-24.5"/>
<text text-anchor="start" x="353" y="-31.3" font-family="Times New Roman,serif" font-size="14.00">*</text>
<polygon fill="none" stroke="black" points="363,-24.5 363,-45.5 376,-45.5 376,-24.5 363,-24.5"/>
<text text-anchor="start" x="367.5" y="-31.3" font-family="Times New Roman,serif" font-size="14.00"> </text>
<polygon fill="none" stroke="black" points="376,-24.5 376,-45.5 396,-45.5 396,-24.5 376,-24.5"/>
<text text-anchor="start" x="384" y="-31.3" font-family="Times New Roman,serif" font-size="14.00"> </text>
<polygon fill="none" stroke="black" points="203,-3.5 203,-24.5 259,-24.5 259,-3.5 203,-3.5"/>
<text text-anchor="start" x="224" y="-10.3" font-family="Times New Roman,serif" font-size="14.00">10</text>
<polygon fill="none" stroke="black" points="259,-3.5 259,-24.5 272,-24.5 272,-3.5 259,-3.5"/>
<text text-anchor="start" x="263.5" y="-10.3" font-family="Times New Roman,serif" font-size="14.00"> </text>
<polygon fill="none" stroke="black" points="272,-3.5 272,-24.5 285,-24.5 285,-3.5 272,-3.5"/>
<text text-anchor="start" x="276.5" y="-10.3" font-family="Times New Roman,serif" font-size="14.00"> </text>
<polygon fill="none" stroke="black" points="285,-3.5 285,-24.5 298,-24.5 298,-3.5 285,-3.5"/>
<text text-anchor="start" x="289.5" y="-10.3" font-family="Times New Roman,serif" font-size="14.00"> </text>
<polygon fill="none" stroke="black" points="298,-3.5 298,-24.5 311,-24.5 311,-3.5 298,-3.5"/>
<text text-anchor="start" x="302.5" y="-10.3" font-family="Times New Roman,serif" font-size="14.00"> </text>
<polygon fill="none" stroke="black" points="311,-3.5 311,-24.5 324,-24.5 324,-3.5 311,-3.5"/>
<text text-anchor="start" x="315.5" y="-10.3" font-family="Times New Roman,serif" font-size="14.00"> </text>
<polygon fill="none" stroke="black" points="324,-3.5 324,-24.5 337,-24.5 337,-3.5 324,-3.5"/>
<text text-anchor="start" x="328.5" y="-10.3" font-family="Times New Roman,serif" font-size="14.00"> </text>
<polygon fill="none" stroke="black" points="337,-3.5 337,-24.5 350,-24.5 350,-3.5 337,-3.5"/>
<text text-anchor="start" x="341.5" y="-10.3" font-family="Times New Roman,serif" font-size="14.00"> </text>
<polygon fill="none" stroke="black" points="350,-3.5 350,-24.5 363,-24.5 363,-3.5 350,-3.5"/>
<text text-anchor="start" x="354.5" y="-10.3" font-family="Times New Roman,serif" font-size="14.00"> </text>
<polygon fill="none" stroke="black" points="363,-3.5 363,-24.5 376,-24.5 376,-3.5 363,-3.5"/>
<text text-anchor="start" x="367.5" y="-10.3" font-family="Times New Roman,serif" font-size="14.00"> </text>
<polygon fill="none" stroke="black" points="376,-3.5 376,-24.5 396,-24.5 396,-3.5 376,-3.5"/>
<text text-anchor="start" x="384" y="-10.3" font-family="Times New Roman,serif" font-size="14.00"> </text>
</g>
</g>
</svg>
